<?xml version="1.0" ?><!DOCTYPE svg  PUBLIC '-//W3C//DTD SVG 1.1//EN'  'http://www.w3.org/Graphics/SVG/1.1/DTD/svg11.dtd'><svg enable-background="new 0 0 300 300" height="300px" id="Layer_1" version="1.1" viewBox="0 0 300 300" width="300px" xml:space="preserve" xmlns="http://www.w3.org/2000/svg" xmlns:xlink="http://www.w3.org/1999/xlink"><g><path d="M150.52,15.398c-74.562,0-135.001,60.442-135.001,135.001c0,74.555,60.439,135.003,135.001,135.003   c74.557,0,135.001-60.448,135.001-135.003C285.521,75.84,225.076,15.398,150.52,15.398z M150.52,266.312   c-64.018,0-115.913-51.897-115.913-115.913S86.502,34.49,150.52,34.49c64.013,0,115.91,51.894,115.91,115.909   S214.532,266.312,150.52,266.312z" fill="#44B39B"/><path d="M254.947,150.401c0,57.672-46.756,104.424-104.428,104.424c-57.677,0-104.43-46.752-104.43-104.424   c0-57.676,46.753-104.432,104.43-104.432C208.191,45.969,254.947,92.725,254.947,150.401z" fill="#44B39B"/><polygon fill="#FFFFFF" points="196.328,220.879 150.523,196.796 104.72,220.871 113.465,169.872 76.405,133.759 127.623,126.317    150.52,79.918 173.424,126.317 224.631,133.759 187.573,169.872  "/></g></svg>