<?xml version="1.0" encoding="utf-8"?>
<svg xmlns="http://www.w3.org/2000/svg"
     height="128" width="128" viewBox="0 0 16 16">
  <defs>
    <style>
      view#dark.theme:target  ~ use#default { fill: #5a5b5c; }
      view#light.theme:target ~ use#default { fill: #bfbfbf; }
    </style>
    <symbol id="shape">
      <path d="M3,1h10a3,3,0,0,1,3,3v8a3,3,0,0,1,-3,3h-10a3,3,0,0,1,-3,-3v-8a3,3,0,0,1,3,-3Z
               M3,3h 4a1,1,0,0,1,1,1v8a1,1,0,0,1,-1,1h -4a1,1,0,0,1,-1,-1v-8a1,1,0,0,1,1,-1Z"
            fill-rule="evenodd" />
      <rect x="3" y="4" height="1" width="4" rx=".5" ry=".5" />
      <rect x="3" y="6" height="1" width="4" rx=".5" ry=".5" />
      <rect x="3" y="8" height="1" width="4" rx=".5" ry=".5" />
    </symbol>
  </defs>
  <view class="theme" id="dark" viewTarget="default" />
  <view class="theme" id="light" viewTarget="default" />
  <use  class="theme" id="default" fill="#494e50" href="#shape" />
</svg>
