<?xml version="1.0" encoding="UTF-8"?>
<!DOCTYPE svg PUBLIC "-//W3C//DTD SVG 1.1//EN" "http://www.w3.org/Graphics/SVG/1.1/DTD/svg11.dtd">
<svg version="1.1" xmlns="http://www.w3.org/2000/svg" xmlns:xlink="http://www.w3.org/1999/xlink" x="0" y="0" width="16" height="16" viewBox="0, 0, 16, 16">
  <g id="Layer_1">
    <path d="M11.4,13.7 L10.8,12.2 C11.1,12 11.3,11.8 11.6,11.6 C11.8,11.4 12,11.1 12.2,10.9 L13.7,11.5 C14,11.6 14.2,11.5 14.4,11.2 L14.8,10.3 C14.9,10 14.8,9.8 14.5,9.6 L12.9,9 C13,8.371 13,7.729 12.9,7.1 L14.4,6.5 C14.537,6.452 14.647,6.349 14.704,6.216 C14.761,6.083 14.759,5.932 14.7,5.8 L14.3,4.9 C14.252,4.763 14.149,4.653 14.016,4.596 C13.883,4.539 13.732,4.541 13.6,4.6 L12.1,5.2 C11.961,4.92 11.755,4.68 11.5,4.5 C11.3,4.3 11,4.1 10.8,3.9 L11.4,2.4 C11.5,2.1 11.4,1.9 11.1,1.7 L10.2,1.3 C9.9,1.2 9.7,1.3 9.5,1.6 L9,3.1 C8.371,3 7.729,3 7.1,3.1 L6.5,1.6 C6.452,1.463 6.349,1.353 6.216,1.296 C6.083,1.239 5.932,1.241 5.8,1.3 L4.9,1.7 C4.649,1.835 4.524,2.125 4.6,2.4 L5.2,3.9 C4.92,4.039 4.68,4.245 4.5,4.5 C4.276,4.711 4.075,4.946 3.9,5.2 L2.4,4.5 C2.1,4.4 1.9,4.5 1.7,4.8 L1.4,5.7 C1.291,5.951 1.375,6.244 1.6,6.4 L3.1,7 C3,7.629 3,8.271 3.1,8.9 L1.6,9.5 C1.463,9.548 1.353,9.651 1.296,9.784 C1.239,9.917 1.241,10.068 1.3,10.2 L1.7,11.1 C1.748,11.237 1.851,11.347 1.984,11.404 C2.117,11.461 2.268,11.459 2.4,11.4 L3.9,10.8 C4.039,11.08 4.245,11.32 4.5,11.5 C4.7,11.7 5,11.9 5.2,12.1 L4.6,13.6 C4.5,13.9 4.6,14.1 4.9,14.3 L5.8,14.7 C6.1,14.8 6.3,14.7 6.5,14.4 L7,12.9 C7.629,13 8.271,13 8.9,12.9 L9.5,14.4 C9.548,14.537 9.651,14.647 9.784,14.704 C9.917,14.761 10.068,14.759 10.2,14.7 L11.1,14.3 C11.3,14.2 11.5,13.9 11.4,13.7 z M6.4,9.6 C5.814,9.031 5.58,8.191 5.787,7.401 C5.994,6.611 6.611,5.994 7.401,5.787 C8.191,5.58 9.031,5.814 9.6,6.4 C10.461,7.287 10.45,8.702 9.576,9.576 C8.702,10.45 7.287,10.461 6.4,9.6 z" fill="#C0C0C0"/>
  </g>
</svg>
