<?xml version="1.0"?>
<!-- This Source Code Form is subject to the terms of the Mozilla Public
   - License, v. 2.0. If a copy of the MPL was not distributed with this
   - file, You can obtain one at http://mozilla.org/MPL/2.0/. -->
<svg xmlns="http://www.w3.org/2000/svg" xmlns:xlink="http://www.w3.org/1999/xlink" width="16" height="16" viewBox="0 0 16 16">
  <style>
    .icon:not(:target) {
      display: none;
    }
    #standard {
      fill: hsla(240, 4%, 5%, 0.8);
    }
    #inverted {
      fill: hsla(240, 9%, 98%, 0.8);
    }
  </style>
  <defs>
    <path id="settings" d="M11.4 13.7l-.6-1.5c.3-.2.5-.4.8-.6.2-.2.4-.5.6-.7l1.5.6c.3.1.5 0 .7-.3l.4-.9c.1-.3 0-.5-.3-.7L12.9 9a6.054 6.054 0 0 0 0-1.9l1.5-.6a.517.517 0 0 0 .3-.7l-.4-.9a.517.517 0 0 0-.7-.3l-1.5.6a1.874 1.874 0 0 0-.6-.7c-.2-.2-.5-.4-.7-.6l.6-1.5c.1-.3 0-.5-.3-.7l-.9-.4c-.3-.1-.5 0-.7.3L9 3.1a6.054 6.054 0 0 0-1.9 0l-.6-1.5a.517.517 0 0 0-.7-.3l-.9.4a.61.61 0 0 0-.3.7l.6 1.5a1.874 1.874 0 0 0-.7.6 4.349 4.349 0 0 0-.6.7l-1.5-.7c-.3-.1-.5 0-.7.3l-.3.9a.574.574 0 0 0 .2.7l1.5.6a6.054 6.054 0 0 0 0 1.9l-1.5.6a.517.517 0 0 0-.3.7l.4.9a.517.517 0 0 0 .7.3l1.5-.6a1.874 1.874 0 0 0 .6.7c.2.2.5.4.7.6l-.6 1.5c-.1.3 0 .5.3.7l.9.4c.3.1.5 0 .7-.3l.5-1.5a6.054 6.054 0 0 0 1.9 0l.6 1.5a.517.517 0 0 0 .7.3l.9-.4c.2-.1.4-.4.3-.6zm-5-4.1a2.263 2.263 0 1 1 3.2-3.2 2.263 2.263 0 0 1-3.2 3.2z"/>
  </defs>
  <use id="standard" class="icon" xlink:href="#settings" />
  <use id="inverted" class="icon" xlink:href="#settings" />
</svg>
