<svg id="Layer_1" data-name="Layer 1" xmlns="http://www.w3.org/2000/svg" viewBox="0 0 28 28"><defs><style>.cls-1{fill:#4d4d4d;}</style></defs><title>tc-top</title><path class="cls-1" d="M24,0H4A4,4,0,0,0,0,4V24a4,4,0,0,0,4,4H24a4,4,0,0,0,4-4V4A4,4,0,0,0,24,0ZM5,11A2,2,0,0,1,3,9V5A2,2,0,0,1,5,3H23a2,2,0,0,1,2,2V9a2,2,0,0,1-2,2Z"/><path class="cls-1" d="M9.83,5H6.23c-.4,0-.72.45-.72,1s.32,1,.72,1H9.83c.4,0,.72-.45.72-1S10.23,5,9.83,5Z"/><path class="cls-1" d="M15.8,5H12.2c-.4,0-.72.45-.72,1s.32,1,.72,1H15.8c.4,0,.72-.45.72-1S16.2,5,15.8,5Z"/><path class="cls-1" d="M21.77,5H18.17c-.4,0-.72.45-.72,1s.32,1,.72,1h3.61c.4,0,.72-.45.72-1S22.17,5,21.77,5Z"/></svg>
